<svg id="visual" viewBox="0 0 960 540" width="960" height="540" xmlns="http://www.w3.org/2000/svg" xmlns:xlink="http://www.w3.org/1999/xlink" version="1.1"><path d="M0 164L26.7 163.3C53.3 162.7 106.7 161.3 160 176.5C213.3 191.7 266.7 223.3 320 246.3C373.3 269.3 426.7 283.7 480 273.7C533.3 263.7 586.7 229.3 640 226.8C693.3 224.3 746.7 253.7 800 265.3C853.3 277 906.7 271 933.3 268L960 265L960 541L933.3 541C906.7 541 853.3 541 800 541C746.7 541 693.3 541 640 541C586.7 541 533.3 541 480 541C426.7 541 373.3 541 320 541C266.7 541 213.3 541 160 541C106.7 541 53.3 541 26.7 541L0 541Z" fill="#b8ffff"></path><path d="M0 336L26.7 322.5C53.3 309 106.7 282 160 291.3C213.3 300.7 266.7 346.3 320 355C373.3 363.7 426.7 335.3 480 314.7C533.3 294 586.7 281 640 287C693.3 293 746.7 318 800 321.7C853.3 325.3 906.7 307.7 933.3 298.8L960 290L960 541L933.3 541C906.7 541 853.3 541 800 541C746.7 541 693.3 541 640 541C586.7 541 533.3 541 480 541C426.7 541 373.3 541 320 541C266.7 541 213.3 541 160 541C106.7 541 53.3 541 26.7 541L0 541Z" fill="#9decf0"></path><path d="M0 396L26.7 397C53.3 398 106.7 400 160 391.7C213.3 383.3 266.7 364.7 320 370C373.3 375.3 426.7 404.7 480 409C533.3 413.3 586.7 392.7 640 379.7C693.3 366.7 746.7 361.3 800 363C853.3 364.7 906.7 373.3 933.3 377.7L960 382L960 541L933.3 541C906.7 541 853.3 541 800 541C746.7 541 693.3 541 640 541C586.7 541 533.3 541 480 541C426.7 541 373.3 541 320 541C266.7 541 213.3 541 160 541C106.7 541 53.3 541 26.7 541L0 541Z" fill="#82d8e1"></path><path d="M0 499L26.7 486.2C53.3 473.3 106.7 447.7 160 432.2C213.3 416.7 266.7 411.3 320 414.5C373.3 417.7 426.7 429.3 480 445.3C533.3 461.3 586.7 481.7 640 477.3C693.3 473 746.7 444 800 427.5C853.3 411 906.7 407 933.3 405L960 403L960 541L933.3 541C906.7 541 853.3 541 800 541C746.7 541 693.3 541 640 541C586.7 541 533.3 541 480 541C426.7 541 373.3 541 320 541C266.7 541 213.3 541 160 541C106.7 541 53.3 541 26.7 541L0 541Z" fill="#66c5d2"></path></svg>