<svg id="visual" viewBox="0 0 900 600" width="900" height="600" xmlns="http://www.w3.org/2000/svg" xmlns:xlink="http://www.w3.org/1999/xlink" version="1.1"><path d="M0 487L21.5 471.8C43 456.7 86 426.3 128.8 402.8C171.7 379.3 214.3 362.7 257.2 381.5C300 400.3 343 454.7 385.8 457.7C428.7 460.7 471.3 412.3 514.2 408.8C557 405.3 600 446.7 642.8 442.7C685.7 438.7 728.3 389.3 771.2 357.7C814 326 857 312 878.5 305L900 298L900 601L878.5 601C857 601 814 601 771.2 601C728.3 601 685.7 601 642.8 601C600 601 557 601 514.2 601C471.3 601 428.7 601 385.8 601C343 601 300 601 257.2 601C214.3 601 171.7 601 128.8 601C86 601 43 601 21.5 601L0 601Z" fill="#b0e0e6" stroke-linecap="round" stroke-linejoin="miter"></path></svg>